<?xml version="1.0" encoding="UTF-8" standalone="no"?>
<!-- Created with Inkscape (http://www.inkscape.org/) -->

<svg
   xmlns:dc="http://purl.org/dc/elements/1.1/"
   xmlns:cc="http://creativecommons.org/ns#"
   xmlns:rdf="http://www.w3.org/1999/02/22-rdf-syntax-ns#"
   xmlns:svg="http://www.w3.org/2000/svg"
   xmlns="http://www.w3.org/2000/svg"
   xmlns:sodipodi="http://sodipodi.sourceforge.net/DTD/sodipodi-0.dtd"
   xmlns:inkscape="http://www.inkscape.org/namespaces/inkscape"
   width="160.86667mm"
   height="103.32469mm"
   viewBox="0 0 570.00001 366.11111"
   id="svg5148"
   version="1.1"
   inkscape:version="0.91 r13725"
   sodipodi:docname="logo timp scene.svg">
  <defs
     id="defs5150" />
  <sodipodi:namedview
     id="base"
     pagecolor="#ffffff"
     bordercolor="#666666"
     borderopacity="1.0"
     inkscape:pageopacity="0.0"
     inkscape:pageshadow="2"
     inkscape:zoom="0.98994949"
     inkscape:cx="266.03298"
     inkscape:cy="223.30183"
     inkscape:document-units="px"
     inkscape:current-layer="g5177"
     showgrid="false"
     inkscape:window-width="1366"
     inkscape:window-height="705"
     inkscape:window-x="-8"
     inkscape:window-y="247"
     inkscape:window-maximized="1"
     fit-margin-top="0"
     fit-margin-left="0"
     fit-margin-right="0"
     fit-margin-bottom="0" />
  <metadata
     id="metadata5153">
    <rdf:RDF>
      <cc:Work
         rdf:about="">
        <dc:format>image/svg+xml</dc:format>
        <dc:type
           rdf:resource="http://purl.org/dc/dcmitype/StillImage" />
        <dc:title></dc:title>
      </cc:Work>
    </rdf:RDF>
  </metadata>
  <g
     inkscape:label="Capa 1"
     inkscape:groupmode="layer"
     id="layer1"
     transform="translate(-15,-306.44945)">
    <g
       transform="translate(-857.45037,50.198478)"
       id="g5177">
      <path
         style="color:#000000;clip-rule:nonzero;display:inline;overflow:visible;visibility:visible;opacity:1;isolation:auto;mix-blend-mode:normal;color-interpolation:sRGB;color-interpolation-filters:linearRGB;solid-color:#000000;solid-opacity:1;fill:#000000;fill-opacity:1;fill-rule:nonzero;stroke:none;stroke-width:1.73599994;stroke-linecap:round;stroke-linejoin:round;stroke-miterlimit:4;stroke-dasharray:none;stroke-dashoffset:0;stroke-opacity:1;color-rendering:auto;image-rendering:auto;shape-rendering:auto;text-rendering:auto;enable-background:accumulate"
         d="m 15,318.51367 0,56.04688 0,20 0,28 0,10 0,85 c 0,35 25,55.00058 55,55 l 53.46484,0 0,-20 -53.46484,0 c -15,5.2e-4 -35,-15 -35,-35 l 0,-85 0,-10 0,-28 59.953125,0 0,-10 0,-10 -59.953125,0 0,-56.04688 -20,0 z"
         transform="translate(857.45037,-50.198478)"
         id="rect3336-6"
         inkscape:connector-curvature="0" />
      <path
         style="color:#000000;clip-rule:nonzero;display:inline;overflow:visible;visibility:visible;opacity:1;isolation:auto;mix-blend-mode:normal;color-interpolation:sRGB;color-interpolation-filters:linearRGB;solid-color:#000000;solid-opacity:1;fill:#000000;fill-opacity:1;fill-rule:nonzero;stroke:none;stroke-width:1.73599994;stroke-linecap:round;stroke-linejoin:round;stroke-miterlimit:4;stroke-dasharray:none;stroke-dashoffset:0;stroke-opacity:1;color-rendering:auto;image-rendering:auto;shape-rendering:auto;text-rendering:auto;enable-background:accumulate"
         d="m 195,422.56055 0,37.5 0,22.5 0,15 0,37.5 0,37.5 20,0 0,-37.5 0,-37.5 0,-15 c 0,-22.09139 17.9086,-40 40,-40 22.0914,0 40,17.90861 40,40 l 0,22.5 0,22.5 0,22.5 0,22.5 20,0 0,-22.5 0,-22.5 0,-22.5 0,-22.5 c 0,-22.09139 17.9086,-40 40,-40 22.0914,0 40,17.90861 40,40 l 0,22.5 0,22.5 0,22.5 0,22.5 20,0 0,-22.5 0,-22.5 0,-22.5 0,-22.5 c 0,-33.13708 -26.8629,-60 -60,-60 -20.87451,0 -39.25183,10.66468 -50,26.83789 -10.74824,-16.17279 -29.1258,-26.83789 -50,-26.83789 -15.37023,0 -29.3841,5.78676 -40,15.29101 l 0,-15.29101 -20,0 z"
         transform="translate(857.45037,-50.198478)"
         id="rect3336-6-4"
         inkscape:connector-curvature="0" />
      <path
         sodipodi:nodetypes="cccccc"
         inkscape:connector-curvature="0"
         id="rect3336-6-4-5"
         d="m 1002.4504,372.3622 20,0 0,35.42979 0,114.5702 -20,0 z"
         style="color:#000000;clip-rule:nonzero;display:inline;overflow:visible;visibility:visible;opacity:1;isolation:auto;mix-blend-mode:normal;color-interpolation:sRGB;color-interpolation-filters:linearRGB;solid-color:#000000;solid-opacity:1;fill:#000000;fill-opacity:1;fill-rule:nonzero;stroke:none;stroke-width:1.73599994;stroke-linecap:round;stroke-linejoin:round;stroke-miterlimit:4;stroke-dasharray:none;stroke-dashoffset:0;stroke-opacity:1;color-rendering:auto;image-rendering:auto;shape-rendering:auto;text-rendering:auto;enable-background:accumulate" />
      <path
         style="color:#000000;clip-rule:nonzero;display:inline;overflow:visible;visibility:visible;opacity:1;isolation:auto;mix-blend-mode:normal;color-interpolation:sRGB;color-interpolation-filters:linearRGB;solid-color:#000000;solid-opacity:1;fill:#000000;fill-opacity:1;fill-rule:nonzero;stroke:none;stroke-width:1.73599994;stroke-linecap:round;stroke-linejoin:round;stroke-miterlimit:4;stroke-dasharray:none;stroke-dashoffset:0;stroke-opacity:1;color-rendering:auto;image-rendering:auto;shape-rendering:auto;text-rendering:auto;enable-background:accumulate"
         d="m 510,422.56055 c -39.73924,0 -72.2407,30.91251 -74.81641,70 l -0.18359,0 0,5 0,55 0,20 0,100 20,0 0,-100 55,0 c 41.4214,2e-5 75,-33.57863 75,-75 0,-41.42137 -33.5786,-75.00002 -75,-75 z m 0,20 c 30.3757,0 55,24.62434 55,55 0,30.37566 -24.6243,55 -55,55 l -55,0 0,-55 c 0,-30.37566 24.6243,-55 55,-55 z"
         id="rect3336-5-3"
         transform="translate(857.45037,-50.198478)"
         inkscape:connector-curvature="0" />
      <path
         inkscape:connector-curvature="0"
         id="path4986-9"
         d="m 1012.4504,300.3622 a 34,34 0 0 0 -33.99998,34 34,34 0 0 0 33.99998,34 34,34 0 0 0 34,-34 34,34 0 0 0 -34,-34 z m 0,18 a 16,16 0 0 1 16,16 16,16 0 0 1 -16,16 16,16 0 0 1 -15.99999,-16 16,16 0 0 1 15.99999,-16 z"
         style="color:#000000;clip-rule:nonzero;display:inline;overflow:visible;visibility:visible;opacity:1;isolation:auto;mix-blend-mode:normal;color-interpolation:sRGB;color-interpolation-filters:linearRGB;solid-color:#000000;solid-opacity:1;fill:#000000;fill-opacity:1;fill-rule:nonzero;stroke:none;stroke-width:1.73599994;stroke-linecap:round;stroke-linejoin:round;stroke-miterlimit:4;stroke-dasharray:none;stroke-dashoffset:0;stroke-opacity:1;color-rendering:auto;image-rendering:auto;shape-rendering:auto;text-rendering:auto;enable-background:accumulate" />
      <path
         sodipodi:nodetypes="ccccc"
         inkscape:connector-curvature="0"
         id="path5084"
         d="m 1053.3026,333.04644 c 6.7987,0.01 33.4298,-2.18673 35.7347,-6.30332 4.8468,-18.61465 -1.0282,-25.99496 -7.2363,-29.63876 -18.2111,-7.06943 -49.471,-11.58531 -89.22609,-16.63971 -12.67026,-1.46036 -11.47816,-8.50103 -22.88558,-16.99502"
         style="opacity:1;fill:none;fill-rule:evenodd;stroke:#000000;stroke-width:18;stroke-linecap:butt;stroke-linejoin:miter;stroke-miterlimit:4;stroke-dasharray:none;stroke-opacity:1" />
    </g>
  </g>
</svg>
