<?xml version="1.0" encoding="UTF-8" standalone="no"?>
<!-- Created with Inkscape (http://www.inkscape.org/) -->

<svg
   xmlns:dc="http://purl.org/dc/elements/1.1/"
   xmlns:cc="http://creativecommons.org/ns#"
   xmlns:rdf="http://www.w3.org/1999/02/22-rdf-syntax-ns#"
   xmlns:svg="http://www.w3.org/2000/svg"
   xmlns="http://www.w3.org/2000/svg"
   xmlns:sodipodi="http://sodipodi.sourceforge.net/DTD/sodipodi-0.dtd"
   xmlns:inkscape="http://www.inkscape.org/namespaces/inkscape"
   width="264.77551"
   height="86.818932"
   viewBox="0 0 264.77551 86.81893"
   id="svg4353"
   version="1.1"
   inkscape:version="0.91 r13725"
   sodipodi:docname="car.svg">
  <defs
     id="defs4355" />
  <sodipodi:namedview
     id="base"
     pagecolor="#ffffff"
     bordercolor="#666666"
     borderopacity="1.0"
     inkscape:pageopacity="0.0"
     inkscape:pageshadow="2"
     inkscape:zoom="2.8"
     inkscape:cx="214.65239"
     inkscape:cy="24.725181"
     inkscape:document-units="px"
     inkscape:current-layer="layer1"
     showgrid="false"
     fit-margin-top="0"
     fit-margin-left="0"
     fit-margin-right="0"
     fit-margin-bottom="0"
     units="px"
     inkscape:window-width="1366"
     inkscape:window-height="705"
     inkscape:window-x="1358"
     inkscape:window-y="-8"
     inkscape:window-maximized="1">
    <inkscape:grid
       type="xygrid"
       id="grid4935" />
  </sodipodi:namedview>
  <metadata
     id="metadata4358">
    <rdf:RDF>
      <cc:Work
         rdf:about="">
        <dc:format>image/svg+xml</dc:format>
        <dc:type
           rdf:resource="http://purl.org/dc/dcmitype/StillImage" />
        <dc:title></dc:title>
      </cc:Work>
    </rdf:RDF>
  </metadata>
  <g
     inkscape:label="Capa 1"
     inkscape:groupmode="layer"
     id="layer1"
     transform="translate(566.67347,-337.52417)">
    <path
       style="color:#000000;clip-rule:nonzero;display:inline;overflow:visible;visibility:visible;opacity:1;isolation:auto;mix-blend-mode:normal;color-interpolation:sRGB;color-interpolation-filters:linearRGB;solid-color:#000000;solid-opacity:1;fill:#000000;fill-opacity:0.12571429;fill-rule:nonzero;stroke:none;stroke-width:0.11046533;stroke-linecap:round;stroke-linejoin:round;stroke-miterlimit:4;stroke-dasharray:none;stroke-dashoffset:0;stroke-opacity:1;color-rendering:auto;image-rendering:auto;shape-rendering:auto;text-rendering:auto;enable-background:accumulate"
       d="m -423.81554,366.23511 -15.79654,-0.0583 -1.74219,-10.60992 c -0.95821,-5.83545 -1.70385,-10.64494 -1.65698,-10.68774 0.0469,-0.0428 1.27824,0.058 2.73638,0.22407 6.14267,0.69947 13.1962,1.86619 17.12213,2.83217 6.44343,1.58541 25.72651,10.74795 35.64662,16.93785 l 2.44832,1.52769 -11.48059,-0.0537 c -6.31433,-0.0296 -18.58905,-0.08 -27.27715,-0.11206 z"
       id="path4294"
       inkscape:connector-curvature="0" />
    <path
       style="fill:none;fill-rule:evenodd;stroke:#ffffff;stroke-width:3;stroke-linecap:butt;stroke-linejoin:miter;stroke-miterlimit:4;stroke-dasharray:none;stroke-opacity:1"
       d="m -535.40985,408.79726 c 0,0 -28.19799,-5.93642 -28.11988,-6.56131 -1.79655,-4.60854 -1.64033,-15.70027 -1.64033,-15.70027 0.93733,-11.71662 7.9673,-25.77656 10.0763,-27.18255 2.31007,-1.48443 7.73296,1.01544 17.18437,-1.87466 19.05903,-8.59219 39.05539,-15.23161 41.55494,-15.70027 30.37796,-6.29653 73.78042,-0.13267 80.29787,2.1871 7.07113,1.91257 28.19189,13.0717 41.33726,22.35079 12.49496,1.11835 41.70663,2.10346 58.46699,8.73605 7.38159,2.92112 10.55392,8.01758 11.31504,12.43427 3.07114,25.08035 4.39688,21.12217 -24.75881,24.99545 2.98257,-29.82564 -20.9873,-30.49001 -20.9873,-30.49001 0,0 -24.38952,-3.60587 -25.08697,30.08606 -1.24977,0 -113.71034,-0.31244 -113.71034,-0.31244 0.703,-31.16621 -23.58945,-29.52588 -23.58945,-29.52588 0,0 -21.40236,-0.62489 -22.33969,26.55767 z"
       id="path4183"
       inkscape:connector-curvature="0"
       sodipodi:nodetypes="ccccccccsccccccc" />
    <circle
       style="color:#000000;clip-rule:nonzero;display:inline;overflow:visible;visibility:visible;opacity:1;isolation:auto;mix-blend-mode:normal;color-interpolation:sRGB;color-interpolation-filters:linearRGB;solid-color:#000000;solid-opacity:1;fill:none;fill-opacity:0;fill-rule:nonzero;stroke:#ffffff;stroke-width:3;stroke-linecap:round;stroke-linejoin:round;stroke-miterlimit:4;stroke-dasharray:none;stroke-dashoffset:0;stroke-opacity:1;color-rendering:auto;image-rendering:auto;shape-rendering:auto;text-rendering:auto;enable-background:accumulate"
       id="path4210"
       cx="-512.62317"
       cy="404.75903"
       r="18.084066" />
    <circle
       style="color:#000000;clip-rule:nonzero;display:inline;overflow:visible;visibility:visible;opacity:1;isolation:auto;mix-blend-mode:normal;color-interpolation:sRGB;color-interpolation-filters:linearRGB;solid-color:#000000;solid-opacity:1;fill:none;fill-opacity:0;fill-rule:nonzero;stroke:#ffffff;stroke-width:3;stroke-linecap:round;stroke-linejoin:round;stroke-miterlimit:4;stroke-dasharray:none;stroke-dashoffset:0;stroke-opacity:1;color-rendering:auto;image-rendering:auto;shape-rendering:auto;text-rendering:auto;enable-background:accumulate"
       id="path4210-6"
       cx="-352.25931"
       cy="404.75897"
       r="18.084066" />
    <path
       style="fill:none;fill-rule:evenodd;stroke:#ffffff;stroke-width:2;stroke-linecap:butt;stroke-linejoin:miter;stroke-miterlimit:4;stroke-dasharray:none;stroke-opacity:1"
       d="m -452.61243,343.28681 c -18.43414,0 -31.85158,2.03088 -37.788,4.21798 -3.86629,1.82268 -13.53605,4.26144 -13.12262,15.12439 0.46867,3.51499 -0.0781,11.17444 8.27975,18.20441 12.57584,10.62307 10.16549,18.73089 16.18002,24.74542 l 97.35974,1.37039 c 0.2745,0.0523 0.59536,-0.40207 0.93513,-1.25067 2.5316,-6.32284 6.1132,-34.53254 -0.60698,-38.13612 -12.19694,-8.61859 -30.21816,-16.6602 -38.83446,-19.97416 -2.8721,-1.10465 -19.80953,-4.41211 -32.40258,-4.30164 z"
       id="path4227"
       inkscape:connector-curvature="0"
       sodipodi:nodetypes="ccccccsccc" />
    <path
       style="fill:none;fill-rule:evenodd;stroke:#ffffff;stroke-width:2;stroke-linecap:butt;stroke-linejoin:miter;stroke-miterlimit:4;stroke-dasharray:none;stroke-opacity:1"
       d="m -502.68664,367.07411 121.12686,0.41859"
       id="path4229"
       inkscape:connector-curvature="0"
       sodipodi:nodetypes="cc" />
    <path
       style="fill:none;fill-rule:evenodd;stroke:#ffffff;stroke-width:2;stroke-linecap:butt;stroke-linejoin:miter;stroke-miterlimit:4;stroke-dasharray:none;stroke-opacity:1"
       d="m -444.48375,343.44303 3.91339,23.62277 c 4.53043,7.65485 3.28065,39.54435 3.28065,39.54435"
       id="path4231"
       inkscape:connector-curvature="0"
       sodipodi:nodetypes="ccc" />
    <circle
       style="color:#000000;clip-rule:nonzero;display:inline;overflow:visible;visibility:visible;opacity:1;isolation:auto;mix-blend-mode:normal;color-interpolation:sRGB;color-interpolation-filters:linearRGB;solid-color:#000000;solid-opacity:1;fill:none;fill-opacity:0;fill-rule:nonzero;stroke:#ffffff;stroke-width:2;stroke-linecap:round;stroke-linejoin:round;stroke-miterlimit:4;stroke-dasharray:none;stroke-dashoffset:0;stroke-opacity:1;color-rendering:auto;image-rendering:auto;shape-rendering:auto;text-rendering:auto;enable-background:accumulate"
       id="path4210-5"
       cx="-512.62317"
       cy="404.75903"
       r="10.331727" />
    <circle
       style="color:#000000;clip-rule:nonzero;display:inline;overflow:visible;visibility:visible;opacity:1;isolation:auto;mix-blend-mode:normal;color-interpolation:sRGB;color-interpolation-filters:linearRGB;solid-color:#000000;solid-opacity:1;fill:none;fill-opacity:0;fill-rule:nonzero;stroke:#ffffff;stroke-width:2;stroke-linecap:round;stroke-linejoin:round;stroke-miterlimit:4;stroke-dasharray:none;stroke-dashoffset:0;stroke-opacity:1;color-rendering:auto;image-rendering:auto;shape-rendering:auto;text-rendering:auto;enable-background:accumulate"
       id="path4210-5-0"
       cx="-352.25931"
       cy="404.75897"
       r="10.331727" />
    <path
       style="fill:#ff0000;fill-rule:evenodd;stroke:#ffffff;stroke-width:0.5;stroke-linecap:butt;stroke-linejoin:miter;stroke-miterlimit:4;stroke-dasharray:none;stroke-opacity:1"
       d="m -481.98207,350.56451 -13.7475,5.93642"
       id="path4286"
       inkscape:connector-curvature="0" />
    <path
       style="fill:#ff0000;fill-rule:evenodd;stroke:#ffffff;stroke-width:0.5;stroke-linecap:butt;stroke-linejoin:miter;stroke-miterlimit:4;stroke-dasharray:none;stroke-opacity:1"
       d="m -476.35809,350.56451 -23.43324,9.68574"
       id="path4288"
       inkscape:connector-curvature="0"
       sodipodi:nodetypes="cc" />
    <path
       style="color:#000000;clip-rule:nonzero;display:inline;overflow:visible;visibility:visible;opacity:1;isolation:auto;mix-blend-mode:normal;color-interpolation:sRGB;color-interpolation-filters:linearRGB;solid-color:#000000;solid-opacity:1;fill:#000000;fill-opacity:0.12571429;fill-rule:nonzero;stroke:none;stroke-width:0.11046533;stroke-linecap:round;stroke-linejoin:round;stroke-miterlimit:4;stroke-dasharray:none;stroke-dashoffset:0;stroke-opacity:1;color-rendering:auto;image-rendering:auto;shape-rendering:auto;text-rendering:auto;enable-background:accumulate"
       d="m -487.98388,366.01431 c -10.28899,-0.0434 -13.948,-0.12554 -14.06567,-0.31593 -0.37628,-0.60884 -0.45459,-4.71002 -0.12017,-6.29395 0.94432,-4.47268 3.591,-7.13531 9.7622,-9.82106 6.06426,-2.63921 13.68404,-4.00128 27.16748,-4.85634 4.4654,-0.28317 19.43404,-0.39022 19.6835,-0.14076 0.15459,0.15459 3.61251,20.40817 3.62072,21.20709 0.004,0.41792 0.32858,0.41636 -46.04806,0.22095 z"
       id="path4292"
       inkscape:connector-curvature="0" />
    <path
       style="fill:none;fill-rule:evenodd;stroke:#ffffff;stroke-width:1;stroke-linecap:butt;stroke-linejoin:miter;stroke-miterlimit:4;stroke-dasharray:none;stroke-opacity:1"
       d="m -319.58513,374.15467 c 3.70023,11.55832 4.11712,13.77787 13.97512,14.72508"
       id="path4296"
       inkscape:connector-curvature="0"
       sodipodi:nodetypes="cc" />
    <path
       style="fill:none;fill-rule:evenodd;stroke:#ffffff;stroke-width:1px;stroke-linecap:butt;stroke-linejoin:miter;stroke-opacity:1"
       d="m -423.14999,373.09881 c -3.1631,-0.32788 -7.67244,-0.72411 -9.77617,-0.85611 -0.9562,-0.06 -0.98561,1.8658 -0.0276,1.87791 7.21263,0.0912 4.37314,0.18221 9.8038,0.0829 0.75539,-0.0138 0.75457,-1.06692 -10e-6,-1.10465 z"
       id="path4313"
       inkscape:connector-curvature="0"
       sodipodi:nodetypes="cssssc" />
    <path
       style="fill:none;fill-rule:evenodd;stroke:#ffffff;stroke-width:1px;stroke-linecap:butt;stroke-linejoin:miter;stroke-opacity:1"
       d="m -482.0885,373.64418 c -3.1631,-0.32788 -7.67244,-0.72411 -9.77617,-0.85611 -0.9562,-0.06 -0.98561,1.8658 -0.0276,1.87792 7.21263,0.0912 4.37314,0.18221 9.8038,0.0828 0.75539,-0.0138 0.75457,-1.06693 -1e-5,-1.10466 z"
       id="path4313-0"
       inkscape:connector-curvature="0"
       sodipodi:nodetypes="cssssc" />
  </g>
</svg>
