<?xml version="1.0" encoding="UTF-8" standalone="no"?>
<!-- Created with Inkscape (http://www.inkscape.org/) -->

<svg
   xmlns:dc="http://purl.org/dc/elements/1.1/"
   xmlns:cc="http://creativecommons.org/ns#"
   xmlns:rdf="http://www.w3.org/1999/02/22-rdf-syntax-ns#"
   xmlns:svg="http://www.w3.org/2000/svg"
   xmlns="http://www.w3.org/2000/svg"
   xmlns:sodipodi="http://sodipodi.sourceforge.net/DTD/sodipodi-0.dtd"
   xmlns:inkscape="http://www.inkscape.org/namespaces/inkscape"
   width="194.9756mm"
   height="83.900131mm"
   viewBox="0 0 690.85843 297.28393"
   id="svg5159"
   version="1.1"
   inkscape:version="0.91 r13725"
   sodipodi:docname="van.svg">
  <defs
     id="defs5161" />
  <sodipodi:namedview
     id="base"
     pagecolor="#ffffff"
     bordercolor="#666666"
     borderopacity="1.0"
     inkscape:pageopacity="0.0"
     inkscape:pageshadow="2"
     inkscape:zoom="0.7"
     inkscape:cx="318.66725"
     inkscape:cy="214.94295"
     inkscape:document-units="px"
     inkscape:current-layer="layer1"
     showgrid="false"
     fit-margin-top="0"
     fit-margin-left="0"
     fit-margin-right="0"
     fit-margin-bottom="0"
     inkscape:window-width="1366"
     inkscape:window-height="705"
     inkscape:window-x="1358"
     inkscape:window-y="-8"
     inkscape:window-maximized="1" />
  <metadata
     id="metadata5164">
    <rdf:RDF>
      <cc:Work
         rdf:about="">
        <dc:format>image/svg+xml</dc:format>
        <dc:type
           rdf:resource="http://purl.org/dc/dcmitype/StillImage" />
        <dc:title></dc:title>
      </cc:Work>
    </rdf:RDF>
  </metadata>
  <g
     inkscape:label="Capa 1"
     inkscape:groupmode="layer"
     id="layer1"
     transform="translate(-28.856491,-249.43452)">
    <path
       style="display:inline;fill:none;fill-rule:evenodd;stroke:#ffffff;stroke-width:5;stroke-linecap:butt;stroke-linejoin:miter;stroke-miterlimit:4;stroke-dasharray:none;stroke-opacity:0.9942857"
       d="m 514.05569,511.07561 -294.6331,-0.37715 c -0.44186,-68.70944 -54.56988,-67.60478 -54.56988,-67.60478 0,0 -53.90708,-3.53489 -54.12801,64.73268 -69.814087,-7.51164 -80.197827,2.8721 -79.314097,-32.4768 0.92016,-54.33506 5.46021,-192.10881 39.26185,-220.25573 3.8351,-3.19352 22.4406,-3.01304 26.64851,-3.15914 l 360.706747,1.37954 c 4.65721,-0.14142 9.39506,0.0338 14.19817,0.49708 78.79939,7.60025 175.16252,92.72343 221.1466,128.91929 12.81017,10.62307 10.42165,54.05411 10.42165,54.05411 14.15842,2.16555 13.42869,18.42449 13.40091,34.83633 -0.0418,24.70808 -1.91392,27.42756 -12.02553,29.15775 l -79.77707,7.2306 c 0,0 3.93915,-66.55676 -52.30062,-66.64526 -62.48863,1.24978 -59.03613,69.71148 -59.03613,69.71148 z"
       id="path4963-9"
       inkscape:connector-curvature="0"
       sodipodi:nodetypes="cccccsccsccscccc" />
    <path
       style="display:inline;fill:none;fill-rule:evenodd;stroke:#ffffff;stroke-width:5;stroke-linecap:butt;stroke-linejoin:miter;stroke-miterlimit:4;stroke-dasharray:none;stroke-opacity:0.9942857"
       d="m 443.02486,377.53679 c 19.47862,-2.69789 22.02255,-8.54137 31.45442,-33.22407 7.2719,-19.03015 15.63916,-39.67604 2.59157,-39.22483 L 75.739863,303.88467 c -11.85457,0.34367 -14.18003,28.95662 -14.6627,33.95056 -2.48719,26.54999 -4.75314,40.74248 3.249,38.48969 z"
       id="path4965-4"
       inkscape:connector-curvature="0"
       sodipodi:nodetypes="csccccc" />
    <path
       style="display:inline;fill:none;fill-rule:evenodd;stroke:#ffffff;stroke-width:5;stroke-linecap:butt;stroke-linejoin:miter;stroke-miterlimit:4;stroke-dasharray:none;stroke-opacity:0.9942857"
       d="m 310.88789,400.89592 c -1.76745,0 -161.72125,-0.22093 -161.72125,-0.22093"
       id="path4967-3"
       inkscape:connector-curvature="0"
       sodipodi:nodetypes="cc" />
    <path
       style="display:inline;fill:none;fill-rule:evenodd;stroke:#ffffff;stroke-width:5;stroke-linecap:butt;stroke-linejoin:miter;stroke-miterlimit:4;stroke-dasharray:none;stroke-opacity:0.9942857"
       d="m 703.75026,407.88168 c -15.67971,-1.73913 -22.44776,-0.64183 -22.79032,14.08173 -0.34256,14.72356 7.85237,15.57423 22.16543,14.66304"
       id="path4969-9"
       inkscape:connector-curvature="0"
       sodipodi:nodetypes="czc" />
    <path
       style="display:inline;fill:none;fill-rule:evenodd;stroke:#ffffff;stroke-width:5;stroke-linecap:butt;stroke-linejoin:miter;stroke-miterlimit:4;stroke-dasharray:none;stroke-opacity:0.9942857"
       d="M 666.31068,504.94809 665.6322,379.13691 c -14.37239,-34.68119 -75.2988,-70.92459 -96.23249,-77.79834 -3.12444,-1.24977 -77.48591,-1.87466 -77.48591,-1.87466"
       id="path4971-3"
       inkscape:connector-curvature="0"
       sodipodi:nodetypes="cccc" />
    <path
       style="display:inline;fill:none;fill-rule:evenodd;stroke:#ffffff;stroke-width:5;stroke-linecap:butt;stroke-linejoin:miter;stroke-miterlimit:4;stroke-dasharray:none;stroke-opacity:0.9942857"
       d="m 491.60136,270.09426 0,239.33145"
       id="path4973-5"
       inkscape:connector-curvature="0" />
    <path
       style="display:inline;fill:none;fill-rule:evenodd;stroke:#ffffff;stroke-width:5;stroke-linecap:butt;stroke-linejoin:miter;stroke-miterlimit:4;stroke-dasharray:none;stroke-opacity:0.9942857"
       d="m 311.63411,268.2196 -1.24977,239.95633"
       id="path4975-1"
       inkscape:connector-curvature="0" />
    <path
       style="display:inline;fill:none;fill-rule:evenodd;stroke:#ffffff;stroke-width:5;stroke-linecap:butt;stroke-linejoin:miter;stroke-miterlimit:4;stroke-dasharray:none;stroke-opacity:0.9942857"
       d="m 37.933913,381.32402 c 8.12352,0 7.76205,10.75811 7.49864,32.49408 -0.31576,26.05506 -2.81199,35.30607 -11.87284,34.99363"
       id="path4977-8"
       inkscape:connector-curvature="0"
       sodipodi:nodetypes="csc" />
    <path
       style="display:inline;fill:none;fill-rule:evenodd;stroke:#ffffff;stroke-width:5;stroke-linecap:butt;stroke-linejoin:miter;stroke-miterlimit:4;stroke-dasharray:none;stroke-opacity:0.9942857"
       d="m 518.81789,394.97607 c 6.65887,-0.0131 14.49628,0.0571 24.64903,-0.0608 2.60248,-0.0302 -4.93551,-7.97731 -9.78077,-7.94998 -8.02255,0.0452 -6.63081,0.0215 -14.49052,0.0608 -1.26704,0.11123 -2.13905,7.04322 -0.37777,7.94998 z"
       id="path4979-0"
       inkscape:connector-curvature="0"
       sodipodi:nodetypes="cssccc" />
    <path
       style="display:inline;fill:none;fill-rule:evenodd;stroke:#ffffff;stroke-width:5;stroke-linecap:butt;stroke-linejoin:miter;stroke-miterlimit:4;stroke-dasharray:none;stroke-opacity:0.9942857"
       d="m 639.22234,375.7 c 13.12261,-4.3742 -37.80562,-54.36511 -69.36238,-66.55039 0,0 -66.08172,-1.79655 -70.61215,-1.87466 -1.32788,-0.62489 8.43596,64.78675 15.62216,67.28629 3.97675,0.44186 108.10532,0.82632 124.35237,1.13876 z"
       id="path5043"
       inkscape:connector-curvature="0"
       sodipodi:nodetypes="ccccc" />
    <path
       style="display:inline;fill:none;fill-rule:evenodd;stroke:#ffffff;stroke-width:5;stroke-linecap:butt;stroke-linejoin:miter;stroke-miterlimit:4;stroke-dasharray:none;stroke-opacity:0.9942857"
       d="m 468.84779,379.22807 c 0.0131,6.65887 -0.0571,14.49628 0.0608,24.64903 0.0302,2.60248 7.97731,-4.93551 7.94998,-9.78077 -0.0452,-8.02255 -0.0215,-6.63081 -0.0608,-14.49052 -0.11123,-1.26704 -7.04322,-2.13905 -7.94998,-0.37777 z"
       id="path4979-0-5"
       inkscape:connector-curvature="0"
       sodipodi:nodetypes="cssccc" />
    <path
       style="display:inline;fill:none;fill-rule:evenodd;stroke:#ffffff;stroke-width:5;stroke-linecap:butt;stroke-linejoin:miter;stroke-miterlimit:4;stroke-dasharray:none;stroke-opacity:0.9942857"
       d="m 526.20531,269.77353 c -1.76745,0 -466.513867,-0.22093 -466.513867,-0.22093"
       id="path4967-3-7"
       inkscape:connector-curvature="0"
       sodipodi:nodetypes="cc" />
    <circle
       style="color:#000000;clip-rule:nonzero;display:inline;overflow:visible;visibility:visible;opacity:1;isolation:auto;mix-blend-mode:normal;color-interpolation:sRGB;color-interpolation-filters:linearRGB;solid-color:#000000;solid-opacity:1;fill:none;fill-opacity:0.12571429;fill-rule:nonzero;stroke:#ffffff;stroke-width:5;stroke-linecap:round;stroke-linejoin:round;stroke-miterlimit:4;stroke-dasharray:none;stroke-dashoffset:0;stroke-opacity:0.9942857;color-rendering:auto;image-rendering:auto;shape-rendering:auto;text-rendering:auto;enable-background:accumulate"
       id="path5075"
       cx="165.31775"
       cy="500.64017"
       r="43.578274" />
    <circle
       style="color:#000000;clip-rule:nonzero;display:inline;overflow:visible;visibility:visible;opacity:1;isolation:auto;mix-blend-mode:normal;color-interpolation:sRGB;color-interpolation-filters:linearRGB;solid-color:#000000;solid-opacity:1;fill:none;fill-opacity:0.12571429;fill-rule:nonzero;stroke:#ffffff;stroke-width:5;stroke-linecap:round;stroke-linejoin:round;stroke-miterlimit:4;stroke-dasharray:none;stroke-dashoffset:0;stroke-opacity:0.9942857;color-rendering:auto;image-rendering:auto;shape-rendering:auto;text-rendering:auto;enable-background:accumulate"
       id="path5075-4"
       cx="570.87317"
       cy="500.64017"
       r="43.578274" />
    <circle
       style="color:#000000;clip-rule:nonzero;display:inline;overflow:visible;visibility:visible;opacity:1;isolation:auto;mix-blend-mode:normal;color-interpolation:sRGB;color-interpolation-filters:linearRGB;solid-color:#000000;solid-opacity:1;fill:none;fill-opacity:0.12571429;fill-rule:nonzero;stroke:#ffffff;stroke-width:5;stroke-linecap:round;stroke-linejoin:round;stroke-miterlimit:4;stroke-dasharray:none;stroke-dashoffset:0;stroke-opacity:0.9942857;color-rendering:auto;image-rendering:auto;shape-rendering:auto;text-rendering:auto;enable-background:accumulate"
       id="path5075-1"
       cx="165.31775"
       cy="500.64017"
       r="26.026981" />
    <circle
       style="color:#000000;clip-rule:nonzero;display:inline;overflow:visible;visibility:visible;opacity:1;isolation:auto;mix-blend-mode:normal;color-interpolation:sRGB;color-interpolation-filters:linearRGB;solid-color:#000000;solid-opacity:1;fill:none;fill-opacity:0.12571429;fill-rule:nonzero;stroke:#ffffff;stroke-width:5;stroke-linecap:round;stroke-linejoin:round;stroke-miterlimit:4;stroke-dasharray:none;stroke-dashoffset:0;stroke-opacity:0.9942857;color-rendering:auto;image-rendering:auto;shape-rendering:auto;text-rendering:auto;enable-background:accumulate"
       id="path5075-7"
       cx="165.31775"
       cy="500.64017"
       r="43.578274" />
    <circle
       style="color:#000000;clip-rule:nonzero;display:inline;overflow:visible;visibility:visible;opacity:1;isolation:auto;mix-blend-mode:normal;color-interpolation:sRGB;color-interpolation-filters:linearRGB;solid-color:#000000;solid-opacity:1;fill:none;fill-opacity:0.12571429;fill-rule:nonzero;stroke:#ffffff;stroke-width:5;stroke-linecap:round;stroke-linejoin:round;stroke-miterlimit:4;stroke-dasharray:none;stroke-dashoffset:0;stroke-opacity:0.9942857;color-rendering:auto;image-rendering:auto;shape-rendering:auto;text-rendering:auto;enable-background:accumulate"
       id="path5075-1-7"
       cx="570.87317"
       cy="500.64017"
       r="26.026981" />
    <path
       style="color:#000000;clip-rule:nonzero;display:inline;overflow:visible;visibility:visible;opacity:1;isolation:auto;mix-blend-mode:normal;color-interpolation:sRGB;color-interpolation-filters:linearRGB;solid-color:#000000;solid-opacity:1;fill:#000000;fill-opacity:0.1254902;fill-rule:nonzero;stroke:none;stroke-width:7.14285707;stroke-linecap:round;stroke-linejoin:round;stroke-miterlimit:4;stroke-dasharray:none;stroke-dashoffset:0;stroke-opacity:1;color-rendering:auto;image-rendering:auto;shape-rendering:auto;text-rendering:auto;enable-background:accumulate"
       d="m 104.47546,123.80915 c -60.46821,-0.33014 -70.521211,-0.68164 -71.215134,-2.48997 -0.972654,-2.5347 1.806659,-33.989689 3.977039,-45.010314 0.851054,-4.321428 2.771745,-10.267857 4.268203,-13.214285 l 2.720832,-5.357143 117.82811,0 117.82811,0 0,18.349196 c 0,10.092058 -0.41912,25.199206 -0.93139,33.571426 l -0.93137,15.22224 -51.56863,-0.34337 c -28.36273,-0.18886 -83.25183,-0.51636 -121.97577,-0.72778 z"
       id="path5745"
       inkscape:connector-curvature="0"
       transform="translate(28.85643,249.43452)" />
    <path
       style="color:#000000;clip-rule:nonzero;display:inline;overflow:visible;visibility:visible;opacity:1;isolation:auto;mix-blend-mode:normal;color-interpolation:sRGB;color-interpolation-filters:linearRGB;solid-color:#000000;solid-opacity:1;fill:#000000;fill-opacity:0.1254902;fill-rule:nonzero;stroke:none;stroke-width:7.14285707;stroke-linecap:round;stroke-linejoin:round;stroke-miterlimit:4;stroke-dasharray:none;stroke-dashoffset:0;stroke-opacity:1;color-rendering:auto;image-rendering:auto;shape-rendering:auto;text-rendering:auto;enable-background:accumulate"
       d="m 285.5969,91.082119 0,-33.798174 28.92857,0.93728 c 15.91072,0.515505 53.28637,0.938969 83.05701,0.941033 l 54.12844,0.0038 -0.77752,7.5 c -1.05308,10.158103 -14.52864,44.337622 -19.88623,50.439572 -2.3412,2.6665 -6.61457,5.50306 -9.49636,6.30348 -3.20392,0.88989 -30.63221,1.4584 -70.59676,1.46327 l -65.35715,0.008 0,-33.798182 z"
       id="path5747"
       inkscape:connector-curvature="0"
       transform="translate(28.85643,249.43452)" />
    <path
       style="color:#000000;clip-rule:nonzero;display:inline;overflow:visible;visibility:visible;opacity:1;isolation:auto;mix-blend-mode:normal;color-interpolation:sRGB;color-interpolation-filters:linearRGB;solid-color:#000000;solid-opacity:1;fill:#000000;fill-opacity:0.1254902;fill-rule:nonzero;stroke:none;stroke-width:5;stroke-linecap:round;stroke-linejoin:round;stroke-miterlimit:4;stroke-dasharray:none;stroke-dashoffset:0;stroke-opacity:1;color-rendering:auto;image-rendering:auto;shape-rendering:auto;text-rendering:auto;enable-background:accumulate"
       d="m 525.5969,122.05778 -39.28571,-0.74891 -2.53792,-7.85715 c -2.69681,-8.34904 -9.60494,-43.697255 -9.60494,-49.147523 0,-3.233483 0.0558,-3.241573 18.92857,-2.746411 50.85984,1.334399 46.79927,0.85436 57.65262,6.815683 19.02366,10.448959 50.71589,38.659291 56.9293,50.674701 l 2.27717,4.40355 -22.53669,-0.32251 c -12.39517,-0.17738 -40.21525,-0.65952 -61.8224,-1.07143 z"
       id="path5749"
       inkscape:connector-curvature="0"
       transform="translate(28.85643,249.43452)" />
    <path
       style="fill:none;fill-rule:evenodd;stroke:#ffffff;stroke-width:1px;stroke-linecap:butt;stroke-linejoin:miter;stroke-opacity:0.9942857"
       d="M 127.42786,316.71845 74.570716,363.86131"
       id="path5751"
       inkscape:connector-curvature="0" />
    <path
       style="fill:none;fill-rule:evenodd;stroke:#ffffff;stroke-width:1px;stroke-linecap:butt;stroke-linejoin:miter;stroke-opacity:0.9942857"
       d="M 109.83326,318.59114 78.189308,347.55126"
       id="path5751-7"
       inkscape:connector-curvature="0"
       sodipodi:nodetypes="cc" />
  </g>
</svg>
